<?xml version="1.0" encoding="UTF-8"?>
<svg version="1.1" xmlns="http://www.w3.org/2000/svg" width="64" height="64">
<path d="M0 0 C1.4217881 -0.01902626 1.4217881 -0.01902626 2.87229919 -0.03843689 C3.89420853 -0.03550125 4.91611786 -0.03256561 5.96899414 -0.02954102 C7.02067276 -0.03478287 8.07235138 -0.04002472 9.15589905 -0.04542542 C11.38094194 -0.05185138 13.60601878 -0.05050124 15.83105469 -0.04199219 C19.23767574 -0.03348839 22.64261723 -0.06222716 26.04907227 -0.09399414 C28.20987905 -0.09560635 30.37068882 -0.09502825 32.53149414 -0.09204102 C33.55137924 -0.10327499 34.57126434 -0.11450897 35.62205505 -0.12608337 C39.56547721 -0.08718471 42.45203403 -0.05442576 45.96630859 1.80908203 C48.10632331 5.92157822 47.8073295 9.85535569 47.70727539 14.41967773 C47.7016156 15.39064392 47.69595581 16.36161011 47.69012451 17.36199951 C47.6677535 20.45985443 47.61755512 23.55654807 47.56665039 26.65405273 C47.54658636 28.75559852 47.52833542 30.85716245 47.51196289 32.95874023 C47.46788619 38.10762443 47.39885297 43.25564177 47.31665039 48.40405273 C45.99665039 48.40405273 44.67665039 48.40405273 43.31665039 48.40405273 C43.31665039 37.51405273 43.31665039 26.62405273 43.31665039 15.40405273 C27.47665039 15.40405273 11.63665039 15.40405273 -4.68334961 15.40405273 C-4.68334961 26.29405273 -4.68334961 37.18405273 -4.68334961 48.40405273 C-5.67334961 48.40405273 -6.66334961 48.40405273 -7.68334961 48.40405273 C-7.7593271 42.05037076 -7.81191858 35.69680565 -7.84814453 29.34277344 C-7.86324405 27.18061953 -7.88372531 25.01849631 -7.90966797 22.85644531 C-7.94599978 19.75114373 -7.96306423 16.64624659 -7.97631836 13.54077148 C-7.99180222 12.57193527 -8.00728607 11.60309906 -8.02323914 10.60490417 C-8.02346573 9.70419693 -8.02369232 8.80348969 -8.02392578 7.87548828 C-8.03058762 7.08272995 -8.03724945 6.28997162 -8.04411316 5.47319031 C-7.22720314 0.78785219 -4.34148605 0.02812628 0 0 Z M-3.44262695 4.55232239 C-5.2399851 6.86331492 -5.2399851 6.86331492 -4.68334961 12.40405273 C11.15665039 12.40405273 26.99665039 12.40405273 43.31665039 12.40405273 C43.31665039 10.09405273 43.31665039 7.78405273 43.31665039 5.40405273 C40.25522157 3.36310019 39.61923543 3.15116327 36.16821289 3.12939453 C35.33725098 3.11986252 34.50628906 3.11033051 33.65014648 3.10050964 C32.30944092 3.10187675 32.30944092 3.10187675 30.94165039 3.10327148 C29.56033936 3.0968438 29.56033936 3.0968438 28.15112305 3.09028625 C26.20435407 3.08454385 24.25756363 3.08404204 22.31079102 3.08837891 C19.32799832 3.09154071 16.34619556 3.06807238 13.36352539 3.04272461 C11.47290164 3.04045184 9.58227523 3.03974802 7.69165039 3.04077148 C6.79784668 3.03156174 5.90404297 3.02235199 4.9831543 3.01286316 C4.15219238 3.01909195 3.32123047 3.02532074 2.46508789 3.03173828 C1.36946533 3.03079414 1.36946533 3.03079414 0.25170898 3.02983093 C-1.75204482 3.29099375 -1.75204482 3.29099375 -3.44262695 4.55232239 Z " fill="#F7F7F7" transform="translate(7.683349609375,15.595947265625)"/>
<path d="M0 0 C1.32 0 2.64 0 4 0 C4.33 1.32 4.66 2.64 5 4 C5.66 2.68 6.32 1.36 7 0 C8.32 0.33 9.64 0.66 11 1 C11.33 2.32 11.66 3.64 12 5 C12.66 3.35 13.32 1.7 14 0 C14.99 0 15.98 0 17 0 C16.54775239 5.91492272 15.8417395 11.35199888 14 17 C12.68 16.67 11.36 16.34 10 16 C9.67 14.68 9.34 13.36 9 12 C8.34 13.65 7.68 15.3 7 17 C6.01 17 5.02 17 4 17 C3.32844651 14.73050898 2.6626037 12.4596039 2 10.1875 C1.443125 8.29064453 1.443125 8.29064453 0.875 6.35546875 C0 3 0 3 0 0 Z " fill="#F8F8F8" transform="translate(7,41)"/>
<path d="M0 0 C1.27875 -0.061875 2.5575 -0.12375 3.875 -0.1875 C4.95394531 -0.23970703 4.95394531 -0.23970703 6.0546875 -0.29296875 C6.69664063 -0.19628906 7.33859375 -0.09960938 8 0 C11.16746866 4.751203 11.42739452 9.33702264 11 15 C7.34346173 17.43769218 5.30999899 17.23944439 1 17 C0 16 0 16 -0.09765625 12.40234375 C-0.0909822 10.91403133 -0.07902183 9.42573568 -0.0625 7.9375 C-0.05798828 7.17888672 -0.05347656 6.42027344 -0.04882812 5.63867188 C-0.0370068 3.75908129 -0.01907078 1.87953101 0 0 Z M4 3 C4.33 3.99 4.66 4.98 5 6 C5 5.01 5 4.02 5 3 C4.67 3 4.34 3 4 3 Z M4 9 C4 10.32 4 11.64 4 13 C5.32 12.67 6.64 12.34 8 12 C7.67 11.01 7.34 10.02 7 9 C6.01 9 5.02 9 4 9 Z " fill="#F7F7F7" transform="translate(36,41)"/>
<path d="M0 0 C2.97 0 5.94 0 9 0 C9 0.99 9 1.98 9 3 C7.02 3 5.04 3 3 3 C3 4.32 3 5.64 3 7 C4.98 7 6.96 7 9 7 C9 7.99 9 8.98 9 10 C7.02 10 5.04 10 3 10 C3 10.99 3 11.98 3 13 C4.65 13 6.3 13 8 13 C8.33 14.32 8.66 15.64 9 17 C6.03 17 3.06 17 0 17 C0 11.39 0 5.78 0 0 Z " fill="#F7F7F7" transform="translate(26,41)"/>
<path d="M0 0 C1.65 0 3.3 0 5 0 C5 0.99 5 1.98 5 3 C3.35 3 1.7 3 0 3 C0 2.01 0 1.02 0 0 Z " fill="#F8F8F8" transform="translate(13,22)"/>
<path d="M0 0 C1.65 0 3.3 0 5 0 C5 0.99 5 1.98 5 3 C3.35 3 1.7 3 0 3 C0 2.01 0 1.02 0 0 Z " fill="#F7F7F7" transform="translate(6,22)"/>
</svg>
